<svg xmlns="http://www.w3.org/2000/svg" xmlns:xlink="http://www.w3.org/1999/xlink" xmlns:serif="http://www.serif.com/" viewBox="0 0 32 40" version="1.1" xml:space="preserve" style="" x="0px" y="0px" fill-rule="evenodd" clip-rule="evenodd" stroke-linejoin="round" stroke-miterlimit="2"><g transform="matrix(1,0,0,1,-144,-96)"><path d="M158,116.022C158,116.022 162,116.004 162,116.004C162,116.004 162,124 162,124C162,125.105 162.895,126 164,126C165.331,126 167.669,126 169,126C169.53,126 170.039,125.789 170.414,125.414C170.789,125.039 171,124.53 171,124L171,113C171,113 173,113 173,113C173.398,113 173.758,112.764 173.917,112.4C174.076,112.035 174.003,111.611 173.733,111.32C173.733,111.32 165.598,102.559 162.198,98.898C161.631,98.287 160.834,97.939 160,97.939C159.166,97.939 158.369,98.287 157.802,98.898C154.402,102.559 146.267,111.32 146.267,111.32C145.997,111.611 145.924,112.035 146.083,112.4C146.242,112.764 146.602,113 147,113L149,113L149,124C149,124.53 149.211,125.039 149.586,125.414C149.961,125.789 150.47,126 151,126C152.331,126 154.669,126 156,126C156.53,126 157.039,125.789 157.414,125.414C157.789,125.039 158,124.53 158,124L158,116.022ZM169,124L164,124L164,116.004C164,115.473 163.788,114.962 163.411,114.587C163.034,114.212 162.523,114.002 161.991,114.004C160.879,114.009 159.099,114.017 157.991,114.022C156.89,114.027 156,114.921 156,116.022L156,124L151,124L151,112C151,111.448 150.552,111 150,111L149.293,111C149.293,111 159.267,100.259 159.267,100.259C159.456,100.055 159.722,99.939 160,99.939C160.278,99.939 160.544,100.055 160.733,100.259L170.707,111C170.707,111 170,111 170,111C169.448,111 169,111.448 169,112L169,124Z"/></g><text x="0" y="47" fill="#000000" font-size="5px" font-weight="bold" font-family="'Helvetica Neue', Helvetica, Arial-Unicode, Arial, Sans-serif">Created by Mila Karmila</text><text x="0" y="52" fill="#000000" font-size="5px" font-weight="bold" font-family="'Helvetica Neue', Helvetica, Arial-Unicode, Arial, Sans-serif">from the Noun Project</text></svg>